<svg xmlns="http://www.w3.org/2000/svg" width="32" height="19.6" viewBox="0 0 32 19.6">
  <path id="Icon_awesome-backspace" data-name="Icon awesome-backspace" d="M27.9,4.5H9.942a3.1,3.1,0,0,0-2.193.909l-7.3,7.3a1.549,1.549,0,0,0,0,2.192l7.3,7.3a3.1,3.1,0,0,0,2.192.908H27.9A3.1,3.1,0,0,0,31,20V7.6A3.1,3.1,0,0,0,27.9,4.5ZM23.8,16.806a.775.775,0,0,1,0,1.1L22.7,19a.775.775,0,0,1-1.1,0L18.6,15.992,15.594,19a.775.775,0,0,1-1.1,0l-1.1-1.1a.775.775,0,0,1,0-1.1L16.408,13.8,13.4,10.794a.775.775,0,0,1,0-1.1l1.1-1.1a.775.775,0,0,1,1.1,0L18.6,11.608,21.606,8.6a.775.775,0,0,1,1.1,0l1.1,1.1a.775.775,0,0,1,0,1.1L20.792,13.8Z" transform="translate(0.5 -4)" fill="none" stroke="#193566" stroke-width="1"/>
</svg>
