<svg xmlns="http://www.w3.org/2000/svg" width="35.046" height="38.232" viewBox="0 0 35.046 38.232">
  <g id="icon_power_2" data-name="icon power 2" transform="translate(-169.977 -290)">
    <path id="Path_1" data-name="Path 1" d="M44.862,59.54a1.593,1.593,0,1,0-1.275,2.92,14.335,14.335,0,1,1-11.468,0,1.593,1.593,0,1,0-1.276-2.919,17.525,17.525,0,1,0,14.02,0Z" transform="translate(149.646 235.104)" fill="#e10000"/>
    <path id="Path_2" data-name="Path 2" d="M235.249,16.523a1.593,1.593,0,0,0,1.593-1.593V.593a1.593,1.593,0,1,0-3.186,0V14.93A1.593,1.593,0,0,0,235.249,16.523Z" transform="translate(-47.75 291)" fill="#e10000"/>
  </g>
</svg>
