<svg xmlns="http://www.w3.org/2000/svg" width="106.599" height="21.042" viewBox="0 0 106.599 21.042">
  <g id="Logo" transform="translate(-537.486 -3893.662)">
    <path id="Path_2353" data-name="Path 2353" d="M130.493-19.737a.1.1,0,0,1,.029-.087.1.1,0,0,1,.087-.029h1.645a1.63,1.63,0,0,1,1.607,1.76,1.636,1.636,0,0,1-1.607,1.779h-1.645a.1.1,0,0,1-.087-.029.1.1,0,0,1-.029-.087Zm3.979,11.5h3.137l-3.291-5.968c-.038-.057-.019-.1,0-.1a4.654,4.654,0,0,0,.976-.689,4,4,0,0,0,1.282-3.1,4.265,4.265,0,0,0-4.323-4.5h-4.5V-8.24h2.736v-5.509a.1.1,0,0,1,.029-.087.1.1,0,0,1,.087-.029h.727a.184.184,0,0,1,.172.115Zm27.107,0L155.82-22.587h-2.085L148.016-8.24h2.945l1.071-2.582a.151.151,0,0,1,.153-.1h5.184a.151.151,0,0,1,.153.1l1.129,2.582Zm-6.752-9.431c0,.019,0,.019.019.038l1.588,4.036a.07.07,0,0,1,.019.057c0,.057-.019.076-.076.076h-3.2c-.057,0-.076-.019-.076-.057s0-.057.019-.076l1.607-4.036c0-.019,0-.019.019-.038a.041.041,0,0,1,.038-.038ZM178.011-20a4.611,4.611,0,0,1,2.889,1.014l1.683-2.181a6.9,6.9,0,0,0-4.572-1.569,7.327,7.327,0,0,0-7.327,7.327,7.327,7.327,0,0,0,7.327,7.327,6.692,6.692,0,0,0,4.572-1.569L180.9-11.836a4.611,4.611,0,0,1-2.888,1.014,4.8,4.8,0,0,1-4.591-4.591A4.6,4.6,0,0,1,178.011-20ZM193.945-8.24h2.736v-6.237c0-.057.727,1.11,3.9,6.236H203.8L199.4-15.3a.162.162,0,0,1-.038-.115.272.272,0,0,1,.038-.115l4.323-7.059H200.6l-3.845,6.179c-.019.019-.038.038-.057.038s-.019-1.263-.019-6.217h-2.736Z" transform="translate(440.287 3920.173)" fill="#193566"/>
    <g id="Group_434" data-name="Group 434" transform="translate(537.486 3893.662)">
      <path id="Path_2354" data-name="Path 2354" d="M0,0H21.042V21.042H0Z" transform="translate(0)" fill="#193566"/>
      <text id="T" transform="translate(6.677 16.363)" fill="#fcfcfc" font-size="14" font-family="SegoeUI, Segoe UI" letter-spacing="0.5em"><tspan x="0" y="0">T</tspan></text>
    </g>
  </g>
</svg>
